<mxfile host="app.diagrams.net" agent="Mozilla/5.0 (X11; Ubuntu; Linux x86_64; rv:134.0) Gecko/20100101 Firefox/134.0" version="26.0.7">
  <diagram name="Page-1" id="O0bb-i-H4ZPhRPqisjEb">
    <mxGraphModel dx="1364" dy="795" grid="1" gridSize="10" guides="1" tooltips="1" connect="1" arrows="1" fold="1" page="1" pageScale="1" pageWidth="3300" pageHeight="4681" math="0" shadow="0">
      <root>
        <mxCell id="0" />
        <mxCell id="1" parent="0" />
        <mxCell id="2IGZM2jgDLQiRXw3n7Fm-3" style="edgeStyle=orthogonalEdgeStyle;rounded=0;orthogonalLoop=1;jettySize=auto;html=1;exitX=0.5;exitY=1;exitDx=0;exitDy=0;" edge="1" parent="1" source="2IGZM2jgDLQiRXw3n7Fm-1" target="2IGZM2jgDLQiRXw3n7Fm-2">
          <mxGeometry relative="1" as="geometry" />
        </mxCell>
        <mxCell id="2IGZM2jgDLQiRXw3n7Fm-1" value="" style="ellipse;whiteSpace=wrap;html=1;aspect=fixed;fillColor=light-dark(#464a4e, #7d8c9b);strokeColor=#314354;fontColor=#ffffff;" vertex="1" parent="1">
          <mxGeometry x="670" y="40" width="50" height="50" as="geometry" />
        </mxCell>
        <mxCell id="2IGZM2jgDLQiRXw3n7Fm-4" style="edgeStyle=orthogonalEdgeStyle;rounded=0;orthogonalLoop=1;jettySize=auto;html=1;exitX=0.5;exitY=1;exitDx=0;exitDy=0;" edge="1" parent="1" source="2IGZM2jgDLQiRXw3n7Fm-2">
          <mxGeometry relative="1" as="geometry">
            <mxPoint x="695" y="310" as="targetPoint" />
          </mxGeometry>
        </mxCell>
        <mxCell id="2IGZM2jgDLQiRXw3n7Fm-2" value="کاربر روی دکمه خروج از حساب کاربری کلیک میکند" style="rounded=1;whiteSpace=wrap;html=1;fillColor=#f5f5f5;gradientColor=#b3b3b3;strokeColor=#666666;" vertex="1" parent="1">
          <mxGeometry x="635" y="170" width="120" height="60" as="geometry" />
        </mxCell>
        <mxCell id="2IGZM2jgDLQiRXw3n7Fm-10" style="edgeStyle=orthogonalEdgeStyle;rounded=0;orthogonalLoop=1;jettySize=auto;html=1;exitX=0.5;exitY=1;exitDx=0;exitDy=0;entryX=0.5;entryY=0;entryDx=0;entryDy=0;" edge="1" parent="1" source="2IGZM2jgDLQiRXw3n7Fm-5" target="2IGZM2jgDLQiRXw3n7Fm-6">
          <mxGeometry relative="1" as="geometry" />
        </mxCell>
        <mxCell id="2IGZM2jgDLQiRXw3n7Fm-5" value="پیغام تایید خروج نمایش داده میشود" style="rounded=1;whiteSpace=wrap;html=1;fillColor=#f5f5f5;gradientColor=#b3b3b3;strokeColor=#666666;" vertex="1" parent="1">
          <mxGeometry x="630" y="310" width="120" height="60" as="geometry" />
        </mxCell>
        <mxCell id="2IGZM2jgDLQiRXw3n7Fm-7" style="edgeStyle=orthogonalEdgeStyle;rounded=0;orthogonalLoop=1;jettySize=auto;html=1;exitX=1;exitY=0.5;exitDx=0;exitDy=0;entryX=1;entryY=0.5;entryDx=0;entryDy=0;" edge="1" parent="1" source="2IGZM2jgDLQiRXw3n7Fm-6" target="2IGZM2jgDLQiRXw3n7Fm-2">
          <mxGeometry relative="1" as="geometry">
            <mxPoint x="800" y="200" as="targetPoint" />
            <Array as="points">
              <mxPoint x="801" y="440" />
              <mxPoint x="801" y="200" />
            </Array>
          </mxGeometry>
        </mxCell>
        <mxCell id="2IGZM2jgDLQiRXw3n7Fm-8" value="عدم تایید کاربر" style="edgeLabel;html=1;align=center;verticalAlign=middle;resizable=0;points=[];" vertex="1" connectable="0" parent="2IGZM2jgDLQiRXw3n7Fm-7">
          <mxGeometry x="0.0398" y="-4" relative="1" as="geometry">
            <mxPoint as="offset" />
          </mxGeometry>
        </mxCell>
        <mxCell id="2IGZM2jgDLQiRXw3n7Fm-11" style="edgeStyle=orthogonalEdgeStyle;rounded=0;orthogonalLoop=1;jettySize=auto;html=1;exitX=0;exitY=0.5;exitDx=0;exitDy=0;" edge="1" parent="1" source="2IGZM2jgDLQiRXw3n7Fm-6">
          <mxGeometry relative="1" as="geometry">
            <mxPoint x="630" y="580" as="targetPoint" />
          </mxGeometry>
        </mxCell>
        <mxCell id="2IGZM2jgDLQiRXw3n7Fm-12" value="تایید کاربر" style="edgeLabel;html=1;align=center;verticalAlign=middle;resizable=0;points=[];" vertex="1" connectable="0" parent="2IGZM2jgDLQiRXw3n7Fm-11">
          <mxGeometry x="-0.053" y="3" relative="1" as="geometry">
            <mxPoint as="offset" />
          </mxGeometry>
        </mxCell>
        <mxCell id="2IGZM2jgDLQiRXw3n7Fm-6" value="" style="rhombus;whiteSpace=wrap;html=1;" vertex="1" parent="1">
          <mxGeometry x="650" y="410" width="80" height="60" as="geometry" />
        </mxCell>
        <mxCell id="2IGZM2jgDLQiRXw3n7Fm-16" style="edgeStyle=orthogonalEdgeStyle;rounded=0;orthogonalLoop=1;jettySize=auto;html=1;exitX=0.5;exitY=1;exitDx=0;exitDy=0;entryX=0.5;entryY=0;entryDx=0;entryDy=0;" edge="1" parent="1" source="2IGZM2jgDLQiRXw3n7Fm-13" target="2IGZM2jgDLQiRXw3n7Fm-14">
          <mxGeometry relative="1" as="geometry" />
        </mxCell>
        <mxCell id="2IGZM2jgDLQiRXw3n7Fm-13" value="کاربر با موفقیت خارج میشود" style="rounded=1;whiteSpace=wrap;html=1;fillColor=#f5f5f5;gradientColor=#b3b3b3;strokeColor=#666666;" vertex="1" parent="1">
          <mxGeometry x="570" y="580" width="120" height="60" as="geometry" />
        </mxCell>
        <mxCell id="2IGZM2jgDLQiRXw3n7Fm-14" value="" style="ellipse;whiteSpace=wrap;html=1;aspect=fixed;" vertex="1" parent="1">
          <mxGeometry x="600" y="700" width="60" height="60" as="geometry" />
        </mxCell>
        <mxCell id="2IGZM2jgDLQiRXw3n7Fm-15" value="" style="ellipse;whiteSpace=wrap;html=1;aspect=fixed;fillColor=#647687;fontColor=#ffffff;strokeColor=#314354;" vertex="1" parent="1">
          <mxGeometry x="610" y="710" width="40" height="40" as="geometry" />
        </mxCell>
      </root>
    </mxGraphModel>
  </diagram>
</mxfile>
